PathFileType	4	(X/Y/Z)	Patient4_TMGait_0pt5_02_right_12.trc.trc
DataRate	CameraRate	NumFrames	NumMarkers	Units	OrigDataRate	OrigDataStartFrame	OrigNumFrames
78.651685393258	78.651685393258	4	33	mm	78.651685393258	53	       141
Frame#	Time	Sacral			L.Shoulder			Chest			R.Shoulder			Neck			R.ASIS			L.ASIS			R.Thigh.Superior			R.Thigh.Lateral			R.Thigh.Inferior			R.Patella			L.Thigh.Superior			L.Thigh.Lateral			L.Thigh.Inferior			L.Patella			L.Shank.Superior			L.Shank.Lateral			L.Shank.Inferior			R.Shank.Superior			R.Shank.Lateral			R.Shank.Inferior			R.Heel			R.Midfoot.Superior			R.Midfoot.Lateral			R.Toe			L.Heel			L.Midfoot.Lateral			L.Midfoot.Superior			L.Toe			L.Elbow			L.Wrist			R.Elbow			R.Wrist			
		X1	Y1	Z1	X2	Y2	Z2	X3	Y3	Z3	X4	Y4	Z4	X5	Y5	Z5	X6	Y6	Z6	X7	Y7	Z7	X8	Y8	Z8	X9	Y9	Z9	X10	Y10	Z10	X11	Y11	Z11	X12	Y12	Z12	X13	Y13	Z13	X14	Y14	Z14	X15	Y15	Z15	X16	Y16	Z16	X17	Y17	Z17	X18	Y18	Z18	X19	Y19	Z19	X20	Y20	Z20	X21	Y21	Z21	X22	Y22	Z22	X23	Y23	Z23	X24	Y24	Z24	X25	Y25	Z25	X26	Y26	Z26	X27	Y27	Z27	X28	Y28	Z28	X29	Y29	Z29	X30	Y30	Z30	X31	Y31	Z31	X32	Y32	Z32	X33	Y33	Z33	

53	16.411142857143	549.644206328933	1016.063012071733	532.690649053547	722.719345488670	1446.814654154572	359.184918236656	836.283178427706	1365.063980159689	506.992027080216	771.173531664038	1431.644849457680	691.711368703377	735.842667362122	1500.089149461156	513.486385144589	780.807094424967	942.011406134917	634.654272691963	751.066382970433	968.046769181571	362.354394757529	805.575075041605	738.500251090832	607.277886082674	717.086156398189	636.476574288730	667.092469583188	788.944809129794	579.145105985859	586.239394743021	783.177183558615	494.102984056719	591.692373166207	832.683647238273	785.742570080707	384.278962253855	783.686767527302	659.540086716911	307.778003547995	888.744985627242	597.347649955996	362.748617090393	906.509728676522	513.980691549934	355.864102946948	857.597571624774	440.147065917834	349.468595843875	734.555184096396	361.064786632744	299.722448374133	758.643131577466	233.687349020272	355.067385532690	756.356915712604	406.664369467117	598.314423083519	683.549744412613	302.112387996663	655.840444616583	729.530239800293	208.540296417593	593.412410432999	596.700926175369	42.875473620344	555.688632278827	767.553942700149	97.380204881212	596.207387813248	678.733312509806	36.069212708877	632.206477672213	886.881539876769	44.293909825075	625.217458875767	594.747786679879	113.694887723084	391.823659231826	661.863389299964	94.086028812725	308.875353541678	759.551490289063	132.141271244894	330.963078281327	866.717772073481	52.373268087003	295.816295817225	647.789648225018	1098.735612912973	243.743599265938	679.788243714532	840.276491987190	232.123453592293	849.321828070461	1090.773322374778	796.953774542389	1071.855181260745	960.734197445919	761.422731431403	
54	16.423857142857	549.393369445789	1016.314188137018	533.684872641578	721.936965734044	1446.608865796699	359.182729029743	836.410441352552	1364.828258656463	506.217005356981	772.755048294114	1431.758693706410	691.263781027097	736.151263990739	1499.959942432966	513.302603083063	780.694091416992	941.776526841884	634.439510929978	749.890537896432	968.081881852605	362.249876891836	803.322639190350	737.833797250587	606.232770486200	714.492304722143	636.368705118453	667.123052771692	785.019031927863	578.454038945159	585.811081096988	778.541100759498	493.613470460987	591.454431391498	831.775116289084	786.329964075909	384.499628935645	783.422955984767	660.078523432174	307.618798211055	887.929997349081	598.112759771269	363.588116619036	907.208920994809	516.651587802298	356.550822434172	862.150640809660	442.155480495372	349.315770558740	744.709257993406	356.111187981588	298.166601781993	776.236266301189	230.014467458611	353.307133630720	751.461368842659	406.281058853396	598.061806426642	678.465189321444	302.021549048529	655.816957146447	723.774004217097	208.277884531118	593.192605641762	590.299720506380	42.875370319855	555.670914714251	761.137514184986	97.287122271439	596.146990291842	672.324224453066	36.083185271885	632.216673833398	880.478605010621	44.121438865915	625.270542891965	620.013024443983	99.906356473034	388.481704678627	688.773671575110	84.904968234133	305.943837340755	783.708777625517	128.780395935515	328.887459944821	895.806062531464	56.010952563417	294.254248168004	640.719475949976	1099.562232233461	245.473268961711	663.754845004229	840.209985283795	235.394542761993	859.302176029264	1094.052794454381	796.638307365381	1089.047769037566	978.672315423964	757.514295925756	
55	16.436571428571	549.172440302502	1016.435389307021	534.479745968426	721.254703665972	1446.319142025503	359.052344493996	836.575325468715	1364.436691121021	505.320591382003	774.323013531891	1431.690088905765	690.672370285550	736.522849088290	1499.691757132111	513.007872511547	780.609705948050	941.473266759133	634.086604948692	748.769999477377	967.890340196232	361.971471238603	801.261836385754	737.140074319387	605.183946297736	712.103242965188	636.175425582776	667.070885570030	781.363742319838	577.741464964544	585.327283031213	774.194354780279	493.055127263941	591.136311917294	830.502691164487	786.344556209968	384.747599038309	782.691907560369	660.204087917703	307.356756499314	886.388798524463	598.232379396011	364.577243333157	907.117409285771	518.833370174636	357.384539365723	866.005204903235	444.000878527836	349.274595321852	754.784903642073	351.170070890697	296.636023162636	793.734299519312	226.898791403940	351.782445334593	746.796375527684	405.819108725939	597.731929995072	673.588752573047	301.889158433208	655.772113265676	718.109725272793	207.950853322638	592.915985639053	583.899023231994	42.871466771399	555.656675777257	754.721714913137	97.186298552105	596.066255224518	665.916273230927	36.094617912799	632.225363738322	874.079241907042	43.931891699215	625.313949745431	645.885222383952	87.064205963423	385.323793149894	716.202147116415	76.655168107743	303.354986363941	807.958255044261	126.270118532746	327.217855870641	924.662988588727	60.742910153025	293.470787416796	633.722645331764	1100.485595744773	247.056580971927	648.493143863235	840.574165224857	238.632233487091	869.066984837931	1097.387527443970	796.020374508539	1104.973653074927	996.871618376041	753.472910296142	
56	16.449285714286	548.986786534769	1016.432159954502	535.079719912769	720.684828076494	1445.955610272065	358.780742645133	836.774185476969	1363.912358690551	504.308475902448	775.851869706960	1431.470735704839	689.932403151276	736.952050128311	1499.303304276352	512.587313750913	780.568022804557	941.114025530270	633.612761893224	747.714665484462	967.485447708538	361.528666204266	799.420721958887	736.424833042316	604.179390470701	709.933482727364	635.899500475815	666.935063086617	778.016215355545	577.009720690148	584.797057801176	770.172076414040	492.423748833928	590.734877513282	828.884449560328	785.821009490872	384.998785413252	781.531521249667	659.958340499543	306.965579620998	884.229426113023	597.780374236541	365.617027507559	906.328878504219	520.551843437949	358.293278211280	869.185702843607	445.711002313463	349.309380150287	764.677869811273	346.397242111593	295.180021329992	810.904875345802	224.484455839049	350.541579920097	742.390341924830	405.277521156604	597.326862673830	668.928587640581	301.721729295995	655.699700803570	712.544325793553	207.563781375158	592.587486108118	577.497902269188	42.864998627117	555.652527311774	748.305501692234	97.079947416288	595.967411051961	659.508964922199	36.103380522577	632.234650780155	867.683858985107	43.729899013752	625.348580990626	671.970439166521	75.518813237019	382.513391801901	743.730918076079	69.550673112269	301.248845175376	831.954447618392	124.720964402385	326.016526440709	952.857720516450	66.527659708931	293.519179042402	626.823154457904	1101.512638443259	248.487117453655	634.053553577993	841.314367023664	241.794498170476	878.623226835530	1100.779967633879	795.087017304982	1119.607122235816	1015.131402145082	749.325644933604	
